G04 Layer_Physical_Order=1*
G04 Layer_Color=255*
%FSAX25Y25*%
%MOIN*%
G70*
G01*
G75*
%ADD10R,0.05118X0.05118*%
%ADD11C,0.01000*%
%ADD12P,0.28551X8X22.5*%
%ADD13C,0.05905*%
%ADD14R,0.05905X0.05905*%
D10*
X0197059Y0208937D02*
D03*
X0189185D02*
D03*
Y0201063D02*
D03*
X0197059D02*
D03*
D11*
X0208122Y0185315D02*
Y0188760D01*
X0202055Y0194827D02*
X0208122Y0188760D01*
X0202055Y0194827D02*
Y0207031D01*
X0200150Y0208937D02*
X0202055Y0207031D01*
X0197059Y0208937D02*
X0200150D01*
X0178122Y0185315D02*
Y0188957D01*
X0184362Y0195197D01*
Y0207008D02*
X0186291Y0208937D01*
X0189185D01*
X0188122Y0185315D02*
X0197059Y0194252D01*
Y0201063D01*
X0184362Y0195197D02*
Y0207008D01*
X0189185Y0194508D02*
Y0201063D01*
X0183181Y0188504D02*
X0189185Y0194508D01*
X0183181Y0182884D02*
Y0188504D01*
Y0182884D02*
X0185829Y0180236D01*
X0193043D01*
X0198122Y0185315D01*
D12*
X0169500Y0205000D02*
D03*
X0216744D02*
D03*
D13*
X0208122Y0185315D02*
D03*
X0198122D02*
D03*
X0188122D02*
D03*
D14*
X0178122D02*
D03*
M02*
