G04 Layer_Color=65535*
%FSAX25Y25*%
%MOIN*%
G70*
G01*
G75*
%ADD11C,0.01000*%
%ADD15C,0.00787*%
%ADD16C,0.00800*%
%ADD17C,0.00591*%
D11*
X0202177Y0213661D02*
G03*
X0202177Y0213661I-0000394J0000000D01*
G01*
D15*
X0173122Y0180315D02*
Y0190315D01*
X0213122D01*
X0173122Y0180315D02*
X0213122D01*
Y0190315D01*
D16*
X0186035Y0212087D02*
X0200209D01*
X0186035Y0197937D02*
Y0212087D01*
Y0197937D02*
X0200209D01*
Y0212087D01*
D17*
X0186331Y0216849D02*
Y0214226D01*
X0186855Y0213701D01*
X0187905D01*
X0188430Y0214226D01*
Y0216849D01*
X0189479Y0213701D02*
X0190529D01*
X0190004D01*
Y0216849D01*
X0189479Y0216325D01*
X0167827Y0179449D02*
Y0182597D01*
X0169401D01*
X0169926Y0182073D01*
Y0181023D01*
X0169401Y0180498D01*
X0167827D01*
X0170975Y0179449D02*
X0172025D01*
X0171500D01*
Y0182597D01*
X0170975Y0182073D01*
X0163496Y0188372D02*
X0164021Y0188897D01*
X0165070D01*
X0165595Y0188372D01*
Y0187847D01*
X0165070Y0187322D01*
X0164546D01*
X0165070D01*
X0165595Y0186798D01*
Y0186273D01*
X0165070Y0185748D01*
X0164021D01*
X0163496Y0186273D01*
X0166645Y0188897D02*
Y0186798D01*
X0167694Y0185748D01*
X0168744Y0186798D01*
Y0188897D01*
X0169793Y0188372D02*
X0170318Y0188897D01*
X0171368D01*
X0171892Y0188372D01*
Y0187847D01*
X0171368Y0187322D01*
X0170843D01*
X0171368D01*
X0171892Y0186798D01*
Y0186273D01*
X0171368Y0185748D01*
X0170318D01*
X0169793Y0186273D01*
X0216776Y0188372D02*
X0216251Y0188897D01*
X0215202D01*
X0214677Y0188372D01*
Y0186273D01*
X0215202Y0185748D01*
X0216251D01*
X0216776Y0186273D01*
Y0187322D01*
X0215727D01*
X0217826Y0185748D02*
Y0188897D01*
X0219925Y0185748D01*
Y0188897D01*
X0220974D02*
Y0185748D01*
X0222549D01*
X0223073Y0186273D01*
Y0188372D01*
X0222549Y0188897D01*
X0220974D01*
X0196697Y0194671D02*
X0196173Y0195196D01*
X0195123D01*
X0194598Y0194671D01*
Y0194146D01*
X0195123Y0193622D01*
X0196173D01*
X0196697Y0193097D01*
Y0192572D01*
X0196173Y0192047D01*
X0195123D01*
X0194598Y0192572D01*
X0199846Y0194671D02*
X0199321Y0195196D01*
X0198272D01*
X0197747Y0194671D01*
Y0192572D01*
X0198272Y0192047D01*
X0199321D01*
X0199846Y0192572D01*
X0200896Y0195196D02*
Y0192047D01*
X0202995D01*
X0186068Y0194671D02*
X0185543Y0195196D01*
X0184493D01*
X0183968Y0194671D01*
Y0194146D01*
X0184493Y0193622D01*
X0185543D01*
X0186068Y0193097D01*
Y0192572D01*
X0185543Y0192047D01*
X0184493D01*
X0183968Y0192572D01*
X0187117Y0195196D02*
Y0192047D01*
X0188691D01*
X0189216Y0192572D01*
Y0194671D01*
X0188691Y0195196D01*
X0187117D01*
X0190266Y0192047D02*
Y0194146D01*
X0191315Y0195196D01*
X0192365Y0194146D01*
Y0192047D01*
Y0193622D01*
X0190266D01*
M02*
