G04 Layer_Color=32896*
%FSAX25Y25*%
%MOIN*%
G70*
G01*
G75*
%ADD17C,0.00591*%
D17*
X0171764Y0188372D02*
X0171239Y0188897D01*
X0170189D01*
X0169665Y0188372D01*
Y0187847D01*
X0170189Y0187322D01*
X0170714D01*
X0170189D01*
X0169665Y0186798D01*
Y0186273D01*
X0170189Y0185748D01*
X0171239D01*
X0171764Y0186273D01*
X0168615Y0188897D02*
Y0186798D01*
X0167566Y0185748D01*
X0166516Y0186798D01*
Y0188897D01*
X0165467Y0188372D02*
X0164942Y0188897D01*
X0163892D01*
X0163367Y0188372D01*
Y0187847D01*
X0163892Y0187322D01*
X0164417D01*
X0163892D01*
X0163367Y0186798D01*
Y0186273D01*
X0163892Y0185748D01*
X0164942D01*
X0165467Y0186273D01*
X0220846Y0188372D02*
X0221371Y0188897D01*
X0222420D01*
X0222945Y0188372D01*
Y0186273D01*
X0222420Y0185748D01*
X0221371D01*
X0220846Y0186273D01*
Y0187322D01*
X0221895D01*
X0219796Y0185748D02*
Y0188897D01*
X0217697Y0185748D01*
Y0188897D01*
X0216648D02*
Y0185748D01*
X0215073D01*
X0214549Y0186273D01*
Y0188372D01*
X0215073Y0188897D01*
X0216648D01*
X0190137Y0194671D02*
X0190662Y0195196D01*
X0191711D01*
X0192236Y0194671D01*
Y0194146D01*
X0191711Y0193622D01*
X0190662D01*
X0190137Y0193097D01*
Y0192572D01*
X0190662Y0192047D01*
X0191711D01*
X0192236Y0192572D01*
X0189088Y0195196D02*
Y0192047D01*
X0187513D01*
X0186989Y0192572D01*
Y0194671D01*
X0187513Y0195196D01*
X0189088D01*
X0185939Y0192047D02*
Y0194146D01*
X0184889Y0195196D01*
X0183840Y0194146D01*
Y0192047D01*
Y0193622D01*
X0185939D01*
X0200767Y0194671D02*
X0201292Y0195196D01*
X0202341D01*
X0202866Y0194671D01*
Y0194146D01*
X0202341Y0193622D01*
X0201292D01*
X0200767Y0193097D01*
Y0192572D01*
X0201292Y0192047D01*
X0202341D01*
X0202866Y0192572D01*
X0197618Y0194671D02*
X0198143Y0195196D01*
X0199193D01*
X0199718Y0194671D01*
Y0192572D01*
X0199193Y0192047D01*
X0198143D01*
X0197618Y0192572D01*
X0196569Y0195196D02*
Y0192047D01*
X0194470D01*
X0204500Y0214843D02*
X0203450D01*
X0203975D01*
Y0216942D01*
X0204500D01*
X0201876D02*
Y0214843D01*
Y0215892D01*
X0201351Y0216417D01*
X0200827Y0216942D01*
X0200302D01*
X0198728Y0214843D02*
Y0216942D01*
X0197153D01*
X0196628Y0216417D01*
Y0214843D01*
X0195054Y0216942D02*
X0194005D01*
X0193480Y0216417D01*
Y0214843D01*
X0195054D01*
X0195579Y0215367D01*
X0195054Y0215892D01*
X0193480D01*
X0192430Y0214843D02*
X0190856D01*
X0190331Y0215367D01*
X0190856Y0215892D01*
X0191906D01*
X0192430Y0216417D01*
X0191906Y0216942D01*
X0190331D01*
X0189282Y0214843D02*
Y0215367D01*
X0188757D01*
Y0214843D01*
X0189282D01*
X0185084D02*
X0186133D01*
X0186658Y0215367D01*
Y0216417D01*
X0186133Y0216942D01*
X0185084D01*
X0184559Y0216417D01*
Y0215892D01*
X0186658D01*
X0183509Y0216942D02*
Y0215367D01*
X0182985Y0214843D01*
X0181410D01*
Y0216942D01*
X0202138Y0206575D02*
Y0209723D01*
X0201088Y0208674D01*
X0200039Y0209723D01*
Y0206575D01*
X0196890Y0209199D02*
X0197415Y0209723D01*
X0198464D01*
X0198989Y0209199D01*
Y0208674D01*
X0198464Y0208149D01*
X0197415D01*
X0196890Y0207624D01*
Y0207100D01*
X0197415Y0206575D01*
X0198464D01*
X0198989Y0207100D01*
X0193742Y0209723D02*
X0195841D01*
Y0208149D01*
X0194791Y0208674D01*
X0194266D01*
X0193742Y0208149D01*
Y0207100D01*
X0194266Y0206575D01*
X0195316D01*
X0195841Y0207100D01*
X0192692Y0209199D02*
X0192167Y0209723D01*
X0191118D01*
X0190593Y0209199D01*
Y0208674D01*
X0191118Y0208149D01*
X0190593Y0207624D01*
Y0207100D01*
X0191118Y0206575D01*
X0192167D01*
X0192692Y0207100D01*
Y0207624D01*
X0192167Y0208149D01*
X0192692Y0208674D01*
Y0209199D01*
X0192167Y0208149D02*
X0191118D01*
X0189543Y0209199D02*
X0189019Y0209723D01*
X0187969D01*
X0187444Y0209199D01*
Y0208674D01*
X0187969Y0208149D01*
X0188494D01*
X0187969D01*
X0187444Y0207624D01*
Y0207100D01*
X0187969Y0206575D01*
X0189019D01*
X0189543Y0207100D01*
X0186395Y0209723D02*
X0184296D01*
Y0209199D01*
X0186395Y0207100D01*
Y0206575D01*
M02*
