G04*
G04 #@! TF.GenerationSoftware,Altium Limited,Altium Designer,18.1.7 (191)*
G04*
G04 Layer_Physical_Order=1*
G04 Layer_Color=255*
%FSAX25Y25*%
%MOIN*%
G70*
G01*
G75*
%ADD10C,0.01000*%
%ADD14R,0.05118X0.07874*%
%ADD19C,0.01181*%
%ADD20R,0.05906X0.05906*%
%ADD21C,0.05906*%
%ADD22P,0.28551X8X22.5*%
G36*
X0168201Y0185315D02*
D01*
D02*
G37*
D10*
X0184362Y0195197D02*
Y0207008D01*
X0178122Y0188957D02*
X0184362Y0195197D01*
X0178122Y0185315D02*
Y0188957D01*
X0184362Y0207008D02*
X0186291Y0208937D01*
X0208122Y0185315D02*
Y0188760D01*
X0202055Y0194827D02*
X0208122Y0188760D01*
X0202055Y0194827D02*
Y0207031D01*
X0200150Y0208937D02*
X0202055Y0207031D01*
X0197059Y0208937D02*
X0200150D01*
X0186291D02*
X0189185D01*
X0188122Y0185315D02*
X0197059Y0194252D01*
Y0201063D01*
X0189185Y0194508D02*
Y0201063D01*
X0183181Y0188504D02*
X0189185Y0194508D01*
X0183181Y0182884D02*
Y0188504D01*
Y0182884D02*
X0185829Y0180236D01*
X0193043D01*
X0198122Y0185315D01*
D14*
X0197059Y0199685D02*
D03*
X0189185D02*
D03*
Y0210315D02*
D03*
X0197059D02*
D03*
D19*
X0216744Y0205000D02*
X0218201Y0203543D01*
Y0185315D02*
Y0203543D01*
X0168201Y0203701D02*
X0169500Y0205000D01*
X0168201Y0185315D02*
Y0203701D01*
D20*
Y0185315D02*
D03*
D21*
X0178201D02*
D03*
X0188201D02*
D03*
X0198201D02*
D03*
X0208201D02*
D03*
X0218201D02*
D03*
D22*
X0169500Y0205000D02*
D03*
X0216744D02*
D03*
M02*
